<?xml version="1.0" encoding="UTF-8" standalone="no"?>
<!-- Generator: Adobe Illustrator 21.0.0, SVG Export Plug-In . SVG Version: 6.00 Build 0)  -->

<svg
   xmlns:dc="http://purl.org/dc/elements/1.1/"
   xmlns:cc="http://creativecommons.org/ns#"
   xmlns:rdf="http://www.w3.org/1999/02/22-rdf-syntax-ns#"
   xmlns:svg="http://www.w3.org/2000/svg"
   xmlns="http://www.w3.org/2000/svg"
   xmlns:sodipodi="http://sodipodi.sourceforge.net/DTD/sodipodi-0.dtd"
   xmlns:inkscape="http://www.inkscape.org/namespaces/inkscape"
   version="1.1"
   id="Capa_1"
   x="0px"
   y="0px"
   viewBox="0 0 512 258"
   xml:space="preserve"
   width="512"
   height="258"
   sodipodi:docname="banners.svg"
   inkscape:version="0.92.5 (2060ec1f9f, 2020-04-08)"><metadata
   id="metadata25"><rdf:RDF><cc:Work
       rdf:about=""><dc:format>image/svg+xml</dc:format><dc:type
         rdf:resource="http://purl.org/dc/dcmitype/StillImage" /><dc:title /></cc:Work></rdf:RDF></metadata><defs
   id="defs23" /><sodipodi:namedview
   pagecolor="#ffffff"
   bordercolor="#666666"
   borderopacity="1"
   objecttolerance="10"
   gridtolerance="10"
   guidetolerance="10"
   inkscape:pageopacity="0"
   inkscape:pageshadow="2"
   inkscape:window-width="1294"
   inkscape:window-height="704"
   id="namedview21"
   showgrid="false"
   inkscape:zoom="0.4609375"
   inkscape:cx="-93.377572"
   inkscape:cy="256"
   inkscape:window-x="72"
   inkscape:window-y="27"
   inkscape:window-maximized="1"
   inkscape:current-layer="g118"
   inkscape:pagecheckerboard="true" />
<g
   id="g78"><g
     transform="translate(0,-254)"
     id="g18">
	
	
	
	
	
	
	
	
<g
   transform="matrix(1.2117843,0,0,1.5601043,-53.132023,-144.1387)"
   id="g23"><g
     id="g47"><g
       id="g35"><g
         id="g17"><path
           inkscape:connector-curvature="0"
           id="path14"
           d="M 457.301,302.349 451,299.35 c -69.3,-32.1 -136.5,-42.301 -195,-42.001 -116.4,0.901 -199.2,44.401 -201.301,45 -6.899,3.001 -10.499,11.1 -7.798,18.3 24.899,83.101 26.699,88.5 26.699,88.2 0,0 0,0.601 0.3,0.901 2.701,7.5 10.501,12.001 18.6,9.6 69.3,-21.301 119.7,-30.601 163.5,-31.201 57.001,-0.899 102.9,12.601 163.5,31.201 7.8,2.401 15.899,-1.8 18.6,-9.6 2.1,-6 -7.8,27.299 26.999,-89.101 2.701,-7.2 -0.899,-15.298 -7.798,-18.3 z"
           style="fill:#ff637b" /><path
           inkscape:connector-curvature="0"
           id="path16"
           d="M 465.099,320.649 C 430.3,437.049 440.2,403.75 438.1,409.75 c -2.701,7.8 -10.8,12.001 -18.6,9.6 C 358.899,400.75 313,387.25 256,388.149 v -130.8 c 58.5,-0.3 125.7,9.901 195,42.001 l 6.301,2.999 c 6.899,3.002 10.499,11.1 7.798,18.3 z"
           style="fill:#e63950" /></g><g
         id="flowRoot49"
         style="font-style:normal;font-weight:normal;font-size:40px;line-height:1.25;font-family:sans-serif;letter-spacing:0px;word-spacing:0px;fill:#ffffff;fill-opacity:1;stroke:none"
         transform="matrix(2.6850949,0,0,1.7190759,2213.7861,670.99655)"
         aria-label="Sale"><g
           id="g112"
           transform="matrix(1.1896576,0,0,1,610.0013,166.63894)"><g
             id="g118"
             transform="translate(1.1209365,4.8535614)"><path
               inkscape:connector-curvature="0"
               id="path57"
               d="m -1149.3456,-385.06766 0.372,3.81 q -2.328,-0.61129 -4.3516,-0.73217 -2.0238,-0.12091 -3.8611,0.25285 -3.191,0.64912 -4.8108,2.24095 -1.6004,1.58791 -1.3776,3.87003 0.187,1.91469 1.4243,2.66891 1.255,0.73096 4.5239,0.67744 l 2.4067,0.004 q 4.4522,-0.0575 6.7273,1.62964 2.2928,1.66385 2.6365,5.18375 0.4099,4.19681 -2.2024,6.93728 -2.5927,2.73654 -8.0274,3.84203 -2.0499,0.41702 -4.4161,0.42493 -2.3468,0.004 -4.9111,-0.4014 l -0.3928,-4.02274 q 2.5091,0.85055 4.8574,1.06323 2.3483,0.21272 4.553,-0.2358 3.3458,-0.68061 5.0354,-2.36555 1.6895,-1.68492 1.4516,-4.12178 -0.2078,-2.12741 -1.64,-3.05899 -1.4129,-0.9355 -4.4497,-0.92918 l -2.4243,0.0197 q -4.4557,0.0188 -6.5905,-1.4405 -2.1347,-1.45929 -2.4576,-4.76645 -0.374,-3.82934 2.0991,-6.58097 2.4923,-2.75556 7.2305,-3.71941 2.0308,-0.41309 4.1748,-0.47444 2.1439,-0.0614 4.4205,0.22507 z" /><path
               inkscape:connector-curvature="0"
               id="path59"
               d="m -1129.0549,-370.50632 q -4.3498,-0.32182 -6.0626,0.54889 -1.7129,0.87065 -1.798,3.26988 -0.067,1.91152 1.1402,3.1352 1.2285,1.20563 3.3935,1.36582 2.9844,0.22078 4.8538,-1.75303 1.8896,-1.99191 2.0142,-5.50292 l 0.029,-0.79974 z m 7.2112,-0.95281 -0.4426,12.46414 -3.5892,-0.26557 0.1179,-3.31592 q -1.2996,1.89864 -3.1671,2.71876 -1.8667,0.8006 -4.5196,0.60435 -3.3549,-0.24819 -5.2779,-2.26796 -1.9029,-2.03779 -1.7906,-5.1977 0.1308,-3.68658 2.6551,-5.37729 2.5436,-1.68927 7.4396,-1.32706 l 5.0325,0.37237 0.013,-0.35112 q 0.088,-2.47724 -1.5026,-3.94431 -1.5705,-1.48518 -4.5159,-1.7031 -1.8726,-0.13854 -3.6636,0.17876 -1.7908,0.31731 -3.4613,1.09332 l 0.1179,-3.31593 q 1.997,-0.61496 3.8632,-0.8485 1.867,-0.25298 3.6225,-0.12311 4.7399,0.35068 6.9931,2.98159 2.2535,2.63088 2.0761,7.62432 z" /><path
               inkscape:connector-curvature="0"
               id="path61"
               d="m -1115.2903,-385.76378 3.5913,0.19319 -0.7841,30.36953 -3.5913,-0.19319 z" /><path
               inkscape:connector-curvature="0"
               id="path63"
               d="m -1086.0991,-363.8435 -0.2674,1.71494 -16.1202,-5.23614 q -0.3358,3.69465 1.3105,6.23139 1.6685,2.52395 5.1556,3.65658 2.0197,0.65606 3.9834,0.77341 1.9827,0.12349 4.0046,-0.26079 l -0.517,3.3155 q -2.0112,0.18757 -4.0583,-0.0369 -2.047,-0.22447 -4.0859,-0.88675 -5.1066,-1.6587 -7.6346,-5.60296 -2.5091,-3.93806 -1.7188,-9.00659 0.8171,-5.24005 4.1155,-7.39184 3.3206,-2.16464 8.1222,-0.60494 4.3064,1.39879 6.3688,4.99159 2.0844,3.57989 1.3416,8.34355 z m -3.3455,-2.16777 q 0.4105,-2.88959 -0.9038,-5.11826 -1.2949,-2.22244 -3.8864,-3.0642 -2.9344,-0.95315 -4.965,0.12901 -2.0115,1.08833 -2.7478,4.01234 z" /></g></g></g></g></g></g></g></g>















</svg>